<svg xmlns="http://www.w3.org/2000/svg" xmlns:xlink="http://www.w3.org/1999/xlink" width="500" zoomAndPan="magnify" viewBox="0 0 375 374.999991" height="500" preserveAspectRatio="xMidYMid meet" version="1.0"><defs><g/></defs><rect x="-37.5" width="450" fill="#ffffff" y="-37.499999" height="449.999989" fill-opacity="1"/><rect x="-37.5" width="450" fill="#000000" y="-37.499999" height="449.999989" fill-opacity="1"/><path fill="#ffa857" d="M 67.789062 306.914062 L 285.539062 306.914062 L 285.539062 343.667969 L 67.789062 343.667969 Z M 67.789062 306.914062 " fill-opacity="1" fill-rule="nonzero"/><g fill="#ffa857" fill-opacity="1"><g transform="translate(67.788844, 287.569469)"><g><path d="M 179.796875 -224.375 L 179.796875 -40.890625 C 179.796875 -35.492188 183.785156 -29.171875 191.765625 -21.921875 C 199.742188 -14.671875 209.132812 -8.40625 219.9375 -3.125 C 230.75 2.15625 239.84375 4.796875 247.21875 4.796875 C 254.09375 4.796875 260.476562 1.109375 266.375 -6.265625 L 293.265625 11.046875 C 286.140625 18.660156 278.28125 22.46875 269.6875 22.46875 C 255.6875 22.46875 239.101562 17.617188 219.9375 7.921875 C 200.78125 -1.773438 184.203125 -13.316406 170.203125 -26.703125 C 156.203125 -40.097656 149.203125 -51.582031 149.203125 -61.15625 L 149.203125 -115.3125 L 75.15625 -115.3125 L 75.15625 -88.796875 C 75.15625 -86.335938 74.414062 -84.367188 72.9375 -82.890625 C 71.46875 -81.421875 69.503906 -80.6875 67.046875 -80.6875 C 62.628906 -80.6875 55.691406 -84.367188 46.234375 -91.734375 C 36.773438 -99.109375 28.113281 -107.273438 20.25 -116.234375 C 12.394531 -125.203125 8.46875 -131.894531 8.46875 -136.3125 C 8.46875 -138.519531 9.507812 -140.359375 11.59375 -141.828125 C 13.6875 -143.304688 16.207031 -144.046875 19.15625 -144.046875 L 44.578125 -144.046875 L 44.578125 -224.375 L -5.15625 -224.375 L -5.15625 -253.84375 L 149.953125 -253.84375 Z M 222.53125 -224.375 L 196.734375 -224.375 L 167.265625 -253.84375 L 222.53125 -253.84375 Z M 75.15625 -224.375 L 75.15625 -144.046875 L 149.203125 -144.046875 L 149.203125 -224.375 Z M 75.15625 -224.375 "/></g></g></g></svg>