<svg xmlns="http://www.w3.org/2000/svg" xmlns:xlink="http://www.w3.org/1999/xlink" width="1280" zoomAndPan="magnify" viewBox="0 0 960 540.000001" height="720" preserveAspectRatio="xMidYMid meet" version="1.0"><defs><g/><clipPath id="2ae4186fbd"><path d="M 353.921875 418 L 441 418 L 441 428 L 353.921875 428 Z M 272 418 L 331.695312 418 L 331.695312 428 L 272 428 Z M 272 418 " clip-rule="nonzero"/></clipPath></defs><g fill="#ffa857" fill-opacity="1"><g transform="translate(55.19471, 248.684126)"><g><path d="M 30.4375 -118.828125 L 30.4375 -76.34375 C 32.71875 -85.351562 35.863281 -93.03125 39.875 -99.375 C 43.894531 -105.726562 48.238281 -110.503906 52.90625 -113.703125 C 57.570312 -116.898438 61.910156 -118.5 65.921875 -118.5 C 70.046875 -118.5 73.140625 -117.085938 75.203125 -114.265625 C 77.265625 -111.453125 78.296875 -107.710938 78.296875 -103.046875 L 78.296875 -76.5 C 80.578125 -85.507812 83.722656 -93.160156 87.734375 -99.453125 C 91.753906 -105.753906 96.066406 -110.503906 100.671875 -113.703125 C 105.285156 -116.898438 109.65625 -118.5 113.78125 -118.5 C 117.90625 -118.5 121 -117.113281 123.0625 -114.34375 C 125.125 -111.582031 126.15625 -107.816406 126.15625 -103.046875 L 126.15625 -17.421875 C 126.15625 -14.378906 126.804688 -11.9375 128.109375 -10.09375 C 129.410156 -8.25 131.203125 -7.328125 133.484375 -7.328125 C 135.210938 -7.328125 136.972656 -7.894531 138.765625 -9.03125 C 140.554688 -10.175781 142.050781 -11.5625 143.25 -13.1875 L 145.53125 -11.0625 C 144.007812 -7.695312 141.703125 -4.875 138.609375 -2.59375 C 135.515625 -0.320312 131.851562 0.8125 127.625 0.8125 C 122.738281 0.8125 118.773438 -0.894531 115.734375 -4.3125 C 112.691406 -7.726562 111.171875 -12.691406 111.171875 -19.203125 L 111.171875 -98.8125 C 111.171875 -101.300781 110.679688 -103.222656 109.703125 -104.578125 C 108.734375 -105.941406 107.4375 -106.625 105.8125 -106.625 C 102.445312 -106.625 98.566406 -104.019531 94.171875 -98.8125 C 89.773438 -93.601562 86.003906 -86.4375 82.859375 -77.3125 C 79.710938 -68.195312 78.140625 -58.050781 78.140625 -46.875 L 78.140625 -3.09375 L 63.15625 2.28125 L 63.15625 -98.8125 C 63.15625 -101.300781 62.71875 -103.222656 61.84375 -104.578125 C 60.976562 -105.941406 59.789062 -106.625 58.28125 -106.625 C 54.914062 -106.625 51.003906 -104.019531 46.546875 -98.8125 C 42.097656 -93.601562 38.300781 -86.4375 35.15625 -77.3125 C 32.007812 -68.195312 30.4375 -58.050781 30.4375 -46.875 L 30.4375 -3.09375 L 15.296875 2.28125 L 15.296875 -112.96875 Z M 30.4375 -118.828125 "/></g></g></g><g fill="#ffa857" fill-opacity="1"><g transform="translate(199.404932, 248.684126)"><g><path d="M 50.953125 -81.390625 C 56.265625 -81.390625 61.28125 -80.25 66 -77.96875 C 70.726562 -75.6875 74.175781 -72.210938 76.34375 -67.546875 L 64.625 -61.203125 C 62.882812 -63.703125 60.492188 -65.953125 57.453125 -67.953125 C 54.421875 -69.960938 51.164062 -70.96875 47.6875 -70.96875 C 42.15625 -70.96875 37.328125 -69.53125 33.203125 -66.65625 C 29.078125 -63.78125 25.929688 -59.898438 23.765625 -55.015625 C 21.597656 -50.128906 20.515625 -44.703125 20.515625 -38.734375 C 20.515625 -30.160156 21.976562 -23.1875 24.90625 -17.8125 C 27.832031 -12.445312 32.441406 -9.765625 38.734375 -9.765625 C 47.640625 -9.765625 53.773438 -13.34375 57.140625 -20.5 C 60.503906 -27.664062 62.1875 -35.484375 62.1875 -43.953125 L 62.1875 -51.28125 L 76.5 -57.296875 L 76.5 -14.484375 C 76.5 -13.078125 76.878906 -11.722656 77.640625 -10.421875 C 78.398438 -9.117188 79.539062 -8.46875 81.0625 -8.46875 C 84.207031 -8.46875 87.082031 -10.632812 89.6875 -14.96875 L 92.140625 -12.375 C 90.835938 -8.6875 88.554688 -5.566406 85.296875 -3.015625 C 82.035156 -0.460938 78.78125 0.8125 75.53125 0.8125 C 70.863281 0.8125 67.414062 -0.921875 65.1875 -4.390625 C 62.96875 -7.867188 61.859375 -12.484375 61.859375 -18.234375 L 61.53125 -18.234375 C 58.820312 -12.484375 55.160156 -7.679688 50.546875 -3.828125 C 45.929688 0.0234375 41.070312 1.953125 35.96875 1.953125 C 26.75 1.953125 19.773438 -1.21875 15.046875 -7.5625 C 10.328125 -13.914062 7.96875 -22.410156 7.96875 -33.046875 C 7.96875 -41.503906 9.867188 -49.453125 13.671875 -56.890625 C 17.472656 -64.328125 22.65625 -70.269531 29.21875 -74.71875 C 35.78125 -79.164062 43.023438 -81.390625 50.953125 -81.390625 Z M 50.953125 -81.390625 "/></g></g></g><g fill="#ffa857" fill-opacity="1"><g transform="translate(292.995091, 248.684126)"><g><path d="M 31.75 -88.0625 C 35.4375 -88.0625 38.117188 -87.410156 39.796875 -86.109375 C 41.484375 -84.804688 42.328125 -82.800781 42.328125 -80.09375 C 42.328125 -77.15625 41.753906 -74.546875 40.609375 -72.265625 C 39.472656 -69.992188 38.253906 -68.039062 36.953125 -66.40625 C 35.648438 -64.78125 34.78125 -63.644531 34.34375 -63 C 35.644531 -60.820312 38.085938 -58.269531 41.671875 -55.34375 C 44.597656 -52.851562 46.929688 -50.628906 48.671875 -48.671875 C 50.410156 -46.710938 51.898438 -44.078125 53.140625 -40.765625 C 54.390625 -37.460938 55.015625 -33.425781 55.015625 -28.65625 C 55.015625 -23.007812 53.738281 -17.851562 51.1875 -13.1875 C 48.644531 -8.519531 45.117188 -4.828125 40.609375 -2.109375 C 36.109375 0.597656 31.035156 1.953125 25.390625 1.953125 C 21.921875 1.953125 18.125 1.222656 14 -0.234375 C 9.875 -1.703125 6.835938 -3.796875 4.890625 -6.515625 L 15.796875 -21 C 18.398438 -17.632812 21.140625 -14.757812 24.015625 -12.375 C 26.890625 -9.988281 30.007812 -8.796875 33.375 -8.796875 C 38.039062 -8.796875 42.023438 -10.335938 45.328125 -13.421875 C 48.640625 -16.515625 50.296875 -20.234375 50.296875 -24.578125 C 50.296875 -28.046875 48.859375 -31.488281 45.984375 -34.90625 C 43.109375 -38.332031 39.066406 -42.378906 33.859375 -47.046875 C 33.203125 -47.585938 31.953125 -48.695312 30.109375 -50.375 C 28.265625 -52.0625 26.910156 -53.445312 26.046875 -54.53125 L 14.65625 -37.765625 L 9.4375 -41.1875 L 22.46875 -59.25 C 20.945312 -63.476562 20.1875 -67.65625 20.1875 -71.78125 C 20.1875 -76.445312 21.21875 -80.328125 23.28125 -83.421875 C 25.34375 -86.515625 28.164062 -88.0625 31.75 -88.0625 Z M 31.75 -81.71875 C 30.332031 -81.71875 29.429688 -81.335938 29.046875 -80.578125 C 28.671875 -79.816406 28.484375 -78.675781 28.484375 -77.15625 C 28.484375 -75.207031 28.753906 -73.523438 29.296875 -72.109375 C 29.835938 -70.703125 30.21875 -69.726562 30.4375 -69.1875 C 31.632812 -69.945312 32.75 -71.328125 33.78125 -73.328125 C 34.8125 -75.335938 35.328125 -77.046875 35.328125 -78.453125 C 35.328125 -79.429688 35.023438 -80.21875 34.421875 -80.8125 C 33.828125 -81.414062 32.9375 -81.71875 31.75 -81.71875 Z M 31.75 -81.71875 "/></g></g></g><g fill="#ffa857" fill-opacity="1"><g transform="translate(355.497039, 248.684126)"><g><path d="M 31.421875 -81.390625 L 54.046875 -81.390625 L 49.15625 -70.96875 L 31.421875 -70.96875 L 31.421875 -13.671875 C 31.421875 -12.046875 31.90625 -10.71875 32.875 -9.6875 C 33.851562 -8.65625 35.15625 -8.140625 36.78125 -8.140625 C 39.0625 -8.140625 42.210938 -10.253906 46.234375 -14.484375 L 48.515625 -12.046875 C 46.453125 -7.921875 43.976562 -4.851562 41.09375 -2.84375 C 38.21875 -0.84375 35.503906 0.398438 32.953125 0.890625 C 30.410156 1.378906 29.140625 1.410156 29.140625 0.984375 C 29.242188 0.984375 29.40625 0.953125 29.625 0.890625 C 29.84375 0.835938 30.171875 0.8125 30.609375 0.8125 C 21.054688 0.8125 16.28125 -4.664062 16.28125 -15.625 L 16.28125 -70.96875 L 4.0625 -70.96875 L 9.109375 -81.390625 L 16.28125 -81.390625 L 16.28125 -118.828125 L 31.421875 -124.6875 Z M 31.421875 -81.390625 "/></g></g></g><g fill="#ffa857" fill-opacity="1"><g transform="translate(411.813884, 248.684126)"><g><path d="M 50.953125 -81.390625 C 56.265625 -81.390625 61.28125 -80.25 66 -77.96875 C 70.726562 -75.6875 74.175781 -72.210938 76.34375 -67.546875 L 64.625 -61.203125 C 62.882812 -63.703125 60.492188 -65.953125 57.453125 -67.953125 C 54.421875 -69.960938 51.164062 -70.96875 47.6875 -70.96875 C 42.15625 -70.96875 37.328125 -69.53125 33.203125 -66.65625 C 29.078125 -63.78125 25.929688 -59.898438 23.765625 -55.015625 C 21.597656 -50.128906 20.515625 -44.703125 20.515625 -38.734375 C 20.515625 -30.160156 21.976562 -23.1875 24.90625 -17.8125 C 27.832031 -12.445312 32.441406 -9.765625 38.734375 -9.765625 C 47.640625 -9.765625 53.773438 -13.34375 57.140625 -20.5 C 60.503906 -27.664062 62.1875 -35.484375 62.1875 -43.953125 L 62.1875 -51.28125 L 76.5 -57.296875 L 76.5 -14.484375 C 76.5 -13.078125 76.878906 -11.722656 77.640625 -10.421875 C 78.398438 -9.117188 79.539062 -8.46875 81.0625 -8.46875 C 84.207031 -8.46875 87.082031 -10.632812 89.6875 -14.96875 L 92.140625 -12.375 C 90.835938 -8.6875 88.554688 -5.566406 85.296875 -3.015625 C 82.035156 -0.460938 78.78125 0.8125 75.53125 0.8125 C 70.863281 0.8125 67.414062 -0.921875 65.1875 -4.390625 C 62.96875 -7.867188 61.859375 -12.484375 61.859375 -18.234375 L 61.53125 -18.234375 C 58.820312 -12.484375 55.160156 -7.679688 50.546875 -3.828125 C 45.929688 0.0234375 41.070312 1.953125 35.96875 1.953125 C 26.75 1.953125 19.773438 -1.21875 15.046875 -7.5625 C 10.328125 -13.914062 7.96875 -22.410156 7.96875 -33.046875 C 7.96875 -41.503906 9.867188 -49.453125 13.671875 -56.890625 C 17.472656 -64.328125 22.65625 -70.269531 29.21875 -74.71875 C 35.78125 -79.164062 43.023438 -81.390625 50.953125 -81.390625 Z M 50.953125 -81.390625 "/></g></g></g><path stroke-linecap="butt" transform="matrix(0.821776, 0, 0, 0.821776, 515.037566, 87.326511)" fill="none" stroke-linejoin="miter" d="M 76.161204 54.97533 C 83.414931 54.97533 89.413754 56.634275 94.157673 59.952166 C 98.930112 63.236783 101.316332 68.056757 101.316332 74.412087 C 101.316332 79.992608 99.376934 85.230883 95.502892 90.126911 C 91.628851 94.994419 86.42385 99.210707 79.883136 102.775776 C 73.342423 106.336092 66.131476 108.940969 58.259804 110.585655 L 56.168296 105.423434 C 63.051257 102.262406 68.318052 98.46442 71.97819 94.034227 C 75.666848 89.57076 77.511177 84.608184 77.511177 79.151252 C 77.511177 75.215415 76.394122 72.087661 74.160012 69.763236 C 71.959176 67.405537 68.831422 66.226688 64.771997 66.226688 C 59.034612 66.226688 54.200378 67.838099 50.264542 71.060922 C 46.323952 74.288497 43.395842 78.409717 41.475458 83.429335 C 39.583595 88.453705 38.637663 93.630186 38.637663 98.958776 L 38.637663 156.475224 C 38.637663 160.163882 38.095773 163.31065 37.011992 165.915527 C 35.956731 168.520404 34.221731 171.153802 31.802237 173.820474 L 32.966827 174.566762 C 38.670937 171.030213 44.698281 169.261939 51.053611 169.261939 C 55.236625 169.261939 60.241982 169.761048 66.069682 170.749761 C 66.972833 170.87335 68.783888 171.139542 71.512354 171.543583 C 74.24082 171.91435 77.059601 172.099734 79.973451 172.099734 C 84.436918 172.099734 88.406028 170.968419 91.876029 168.705788 C 95.379303 166.409884 98.64966 163.29639 101.687099 159.360553 L 106.293168 162.569116 L 90.854042 195.904889 C 84.375123 195.410532 76.11367 194.141368 66.069682 192.092641 C 59.994804 190.947066 54.666214 190.062929 50.079158 189.444983 C 45.520623 188.793764 40.577061 188.465778 35.243717 188.465778 C 26.720825 188.465778 18.972742 190.885271 11.994713 195.719505 L 6.276342 190.371901 C 9.190192 187.957161 11.314973 185.133627 12.645933 181.910804 C 13.981645 178.654708 14.647125 174.438419 14.647125 169.261939 L 14.647125 117.653998 C 14.647125 105.965325 17.218728 95.365186 22.366688 85.848828 C 27.509894 76.30395 34.749361 68.76977 44.080335 63.251043 C 53.41131 57.732316 64.101764 54.97533 76.161204 54.97533 Z M 168.368152 98.773392 C 175.094249 98.773392 181.34025 100.109105 187.106155 102.775776 C 192.87206 105.437695 197.164403 109.563668 199.987938 115.139436 L 181.478099 122.768684 C 179.714578 119.479314 177.23329 116.755601 174.038988 114.583285 C 170.87796 112.415723 167.517289 111.327189 163.952219 111.327189 C 155.457848 111.327189 148.731751 114.892258 143.769175 122.022396 C 138.811352 129.124014 136.330064 138.003413 136.330064 148.665346 C 136.330064 158.462156 137.789366 166.504952 140.703215 172.798487 C 143.645586 179.058749 148.299189 182.191256 154.649766 182.191256 C 163.514904 182.191256 169.594536 178.036762 172.879153 169.727774 C 176.197044 161.390266 177.851236 152.339744 177.851236 142.576208 L 177.851236 134.205426 L 200.173322 126.210164 L 200.173322 175.726597 C 200.173322 177.494872 200.572609 179.044488 201.380692 180.375448 C 202.217295 181.71116 203.457939 182.37664 205.102624 182.37664 C 208.292172 182.37664 211.534009 180.161543 214.818626 175.726597 L 218.445489 179.353461 C 216.525105 183.788407 213.501927 187.56738 209.375953 190.699888 C 205.254734 193.799121 200.853062 195.348738 196.170937 195.348738 C 190.067539 195.348738 185.618333 193.285751 182.828072 189.164531 C 180.037811 185.010037 178.645058 179.709968 178.645058 173.264323 L 177.851236 173.264323 C 174.813797 180.114009 170.754371 185.661257 165.672959 189.906066 C 160.586794 194.155628 154.68304 196.280409 147.956943 196.280409 C 137.817886 196.280409 129.979487 192.572737 124.427486 185.1669 C 118.913513 177.72779 116.151773 168.040308 116.151773 156.104457 C 116.151773 145.93688 118.338348 136.482317 122.706746 127.740767 C 127.108418 118.970697 133.278365 111.949888 141.216585 106.678339 C 149.150052 101.411543 158.200575 98.773392 168.368152 98.773392 Z M 302.985162 97.052652 C 307.448628 97.052652 310.685711 98.355091 312.701163 100.959968 C 314.74989 103.564845 316.019054 106.616544 316.513411 110.119819 C 317.01252 113.589819 317.259698 118.053286 317.259698 123.510218 L 317.259698 176.472885 C 317.259698 177.989228 317.739794 179.415256 318.699986 180.746215 C 319.660178 182.081927 320.839028 182.747407 322.236535 182.747407 C 324.123645 182.747407 325.801604 182.157982 327.256152 180.979133 C 328.7107 179.771763 330.279331 178.146091 331.952537 176.097365 L 335.161099 179.724228 C 332.898468 184.159174 329.765961 187.876353 325.76833 190.885271 C 321.770699 193.860916 317.478356 195.348738 312.886547 195.348738 C 306.811669 195.348738 302.238874 193.594724 299.172914 190.096203 C 296.135476 186.592928 294.614379 181.677886 294.614379 175.35583 L 294.614379 125.416342 C 294.614379 123.652821 294.414736 122.131725 294.010694 120.86256 C 293.639927 119.588642 292.75579 118.956437 291.363036 118.956437 C 287.051679 118.956437 282.664268 123.557753 278.200801 132.765138 C 273.770609 141.972523 270.034416 152.539388 266.996977 164.475239 C 263.959538 176.411091 262.438442 185.428339 262.438442 191.536491 L 240.12111 196.465793 L 240.12111 116.489409 C 240.12111 114.569025 239.674288 112.986134 238.771137 111.74549 C 237.906013 110.476326 236.651109 109.839367 235.006424 109.839367 C 233.238149 109.839367 231.488889 110.571394 229.753889 112.025942 C 228.047409 113.485244 226.621381 115.15845 225.475806 117.050313 L 222.034326 113.233313 C 223.954709 108.80312 226.949368 105.005133 231.008793 101.844105 C 235.068218 98.649803 239.44137 97.052652 244.11874 97.052652 C 250.47407 97.052652 255.10866 98.806666 258.02251 102.309941 C 260.969634 105.779941 262.438442 110.633189 262.438442 116.860176 L 262.438442 153.642183 L 263.18473 153.642183 C 266.62621 139.538769 271.740896 126.580931 278.528788 114.768669 C 285.316679 102.96116 293.468804 97.052652 302.985162 97.052652 Z M 397.616356 97.052652 C 404.218864 97.052652 410.464866 98.649803 416.35436 101.844105 C 422.277128 105.005133 426.70732 109.440079 429.654444 115.139436 L 411.149359 122.768684 C 409.257495 118.457327 406.747687 115.125176 403.615179 112.77223 C 400.515946 110.414531 397.122 109.235682 393.433342 109.235682 C 387.97641 109.235682 383.156436 111.312929 378.973422 115.467422 C 374.785654 119.588642 371.577092 124.703328 369.347735 130.81148 C 367.113625 136.886358 366.001323 142.837646 366.001323 148.665346 C 366.001323 157.687348 367.579461 165.5305 370.740489 172.194802 C 373.934791 178.859105 379.035216 182.191256 386.041765 182.191256 C 394.037027 182.191256 399.584275 178.003488 402.683508 169.637459 C 405.787495 161.233403 407.337112 152.216155 407.337112 142.576208 L 407.337112 134.205426 L 429.839828 126.210164 L 429.839828 184.653531 C 429.839828 194.45034 427.296745 204.446794 422.215333 214.642892 C 417.129168 224.872264 410.265222 233.319101 401.613987 239.983403 C 393.00078 246.647706 383.669806 249.979857 373.625818 249.979857 C 366.528954 249.979857 360.701254 247.641172 356.142719 242.959048 L 372.323379 227.524675 C 376.382805 232.858018 381.140984 235.519937 386.597916 235.519937 C 395.092287 235.519937 400.70133 232.311375 403.429796 225.899004 C 406.158262 219.481879 407.522495 211.001768 407.522495 200.463424 L 407.337112 187.163339 C 407.337112 181.430708 407.845728 176.796118 408.867715 173.264323 L 407.337112 173.264323 C 403.676974 180.114009 399.555754 185.661257 394.968698 189.906066 C 390.410163 194.155628 384.891436 196.280409 378.412517 196.280409 C 367.997762 196.280409 359.926446 192.667806 354.189061 185.442599 C 348.484951 178.188872 345.632895 169.048035 345.632895 158.010581 C 345.632895 147.595825 347.819471 137.69444 352.192622 128.301671 C 356.594294 118.908903 362.759487 111.360463 370.697708 105.656352 C 378.631175 99.923721 387.605642 97.052652 397.616356 97.052652 Z M 397.616356 97.052652 " stroke="#ffa857" stroke-width="5.11837" stroke-opacity="1" stroke-miterlimit="4"/><g clip-path="url(#2ae4186fbd)"><path fill="#ffa857" d="M 272.679688 418.027344 L 440.242188 418.027344 L 440.242188 427.730469 L 272.679688 427.730469 Z M 272.679688 418.027344 " fill-opacity="1" fill-rule="nonzero"/></g><g fill="#ffa857" fill-opacity="1"><g transform="translate(272.680597, 412.922671)"><g><path d="M 47.453125 -59.21875 L 47.453125 -10.796875 C 47.453125 -9.367188 48.503906 -7.695312 50.609375 -5.78125 C 52.722656 -3.875 55.207031 -2.222656 58.0625 -0.828125 C 60.914062 0.566406 63.3125 1.265625 65.25 1.265625 C 67.070312 1.265625 68.757812 0.289062 70.3125 -1.65625 L 77.40625 2.921875 C 75.53125 4.929688 73.457031 5.9375 71.1875 5.9375 C 67.488281 5.9375 63.109375 4.65625 58.046875 2.09375 C 52.992188 -0.46875 48.617188 -3.515625 44.921875 -7.046875 C 41.234375 -10.578125 39.390625 -13.609375 39.390625 -16.140625 L 39.390625 -30.4375 L 19.84375 -30.4375 L 19.84375 -23.4375 C 19.84375 -22.789062 19.644531 -22.269531 19.25 -21.875 C 18.863281 -21.488281 18.347656 -21.296875 17.703125 -21.296875 C 16.535156 -21.296875 14.703125 -22.265625 12.203125 -24.203125 C 9.703125 -26.148438 7.414062 -28.304688 5.34375 -30.671875 C 3.269531 -33.046875 2.234375 -34.816406 2.234375 -35.984375 C 2.234375 -36.566406 2.507812 -37.050781 3.0625 -37.4375 C 3.613281 -37.832031 4.28125 -38.03125 5.0625 -38.03125 L 11.765625 -38.03125 L 11.765625 -59.21875 L -1.359375 -59.21875 L -1.359375 -67 L 39.578125 -67 Z M 58.734375 -59.21875 L 51.9375 -59.21875 L 44.15625 -67 L 58.734375 -67 Z M 19.84375 -59.21875 L 19.84375 -38.03125 L 39.390625 -38.03125 L 39.390625 -59.21875 Z M 19.84375 -59.21875 "/></g></g></g><g fill="#ffa857" fill-opacity="1"><g transform="translate(330.154906, 412.922671)"><g><path d="M 27.125 -59.21875 C 29.394531 -56.757812 31.257812 -53.972656 32.71875 -50.859375 C 34.175781 -47.742188 34.90625 -44.765625 34.90625 -41.921875 C 34.90625 -40.296875 34.582031 -38.578125 33.9375 -36.765625 C 35.882812 -35.597656 37.734375 -35.015625 39.484375 -35.015625 C 42.722656 -35.015625 46.03125 -35.851562 49.40625 -37.53125 L 49.40625 -30.140625 C 47.84375 -29.691406 46.515625 -29.46875 45.421875 -29.46875 C 40.878906 -29.46875 36.566406 -30.925781 32.484375 -33.84375 C 30.671875 -31.3125 28.445312 -29.445312 25.8125 -28.25 C 23.1875 -27.050781 20.351562 -26.453125 17.3125 -26.453125 C 16.207031 -26.453125 15.363281 -26.484375 14.78125 -26.546875 C 20.09375 -18.960938 25.066406 -13.03125 29.703125 -8.75 C 34.335938 -4.46875 38.148438 -2.328125 41.140625 -2.328125 C 42.691406 -2.328125 44.210938 -3.332031 45.703125 -5.34375 L 52.21875 -0.09375 C 51.3125 0.9375 50.144531 1.757812 48.71875 2.375 C 47.289062 3 45.832031 3.3125 44.34375 3.3125 C 40.519531 3.3125 35.363281 0.425781 28.875 -5.34375 C 22.394531 -11.113281 16.609375 -17.660156 11.515625 -24.984375 C 6.429688 -32.316406 3.890625 -37.960938 3.890625 -41.921875 C 3.890625 -43.859375 4.765625 -45.472656 6.515625 -46.765625 C 8.265625 -48.066406 10.273438 -48.71875 12.546875 -48.71875 C 14.816406 -48.71875 17.035156 -47.695312 19.203125 -45.65625 C 21.378906 -43.613281 23.082031 -40.90625 24.3125 -37.53125 C 25.738281 -38.375 26.859375 -39.492188 27.671875 -40.890625 C 28.484375 -42.285156 28.890625 -43.796875 28.890625 -45.421875 C 28.890625 -47.679688 28.300781 -50.023438 27.125 -52.453125 C 25.957031 -54.890625 24.335938 -57.144531 22.265625 -59.21875 L -1.359375 -59.21875 L -1.359375 -67 L 19.9375 -67 Z M 48.046875 -59.21875 L 31.609375 -59.21875 L 24.40625 -67 L 48.046875 -67 Z M 15.171875 -41.921875 C 13.742188 -41.921875 12.429688 -41.515625 11.234375 -40.703125 C 10.035156 -39.890625 9.4375 -38.960938 9.4375 -37.921875 C 9.4375 -36.828125 9.742188 -35.84375 10.359375 -34.96875 C 10.972656 -34.09375 11.703125 -33.65625 12.546875 -33.65625 C 15.921875 -33.65625 19.066406 -34.429688 21.984375 -35.984375 C 21.460938 -37.597656 20.535156 -38.988281 19.203125 -40.15625 C 17.878906 -41.332031 16.535156 -41.921875 15.171875 -41.921875 Z M 15.171875 -41.921875 "/></g></g></g><g fill="#ffa857" fill-opacity="1"><g transform="translate(376.931795, 412.922671)"><g><path d="M -1.359375 -67 L 45.609375 -67 L 53.296875 -59.21875 L 53.296875 -10.796875 C 53.296875 -9.367188 54.347656 -7.695312 56.453125 -5.78125 C 58.554688 -3.875 61.019531 -2.222656 63.84375 -0.828125 C 66.664062 0.566406 69.050781 1.265625 71 1.265625 C 72.9375 1.265625 74.617188 0.289062 76.046875 -1.65625 L 83.25 2.921875 C 81.363281 4.929688 79.320312 5.9375 77.125 5.9375 C 73.425781 5.9375 69.046875 4.640625 63.984375 2.046875 C 58.929688 -0.546875 54.554688 -3.609375 50.859375 -7.140625 C 47.160156 -10.679688 45.3125 -13.75 45.3125 -16.34375 L 45.3125 -34.8125 C 43.375 -36.757812 41.253906 -38.265625 38.953125 -39.328125 C 36.648438 -40.398438 34.492188 -40.9375 32.484375 -40.9375 C 28.785156 -40.9375 25.347656 -40.109375 22.171875 -38.453125 C 18.992188 -36.804688 16.460938 -34.585938 14.578125 -31.796875 C 12.703125 -29.015625 11.765625 -26 11.765625 -22.75 C 11.765625 -20.09375 12.65625 -17.128906 14.4375 -13.859375 C 16.21875 -10.585938 18.390625 -7.832031 20.953125 -5.59375 C 23.515625 -3.351562 25.929688 -2.234375 28.203125 -2.234375 C 28.847656 -2.234375 29.5625 -2.410156 30.34375 -2.765625 C 31.125 -3.128906 31.835938 -3.664062 32.484375 -4.375 L 38.703125 0.6875 C 38.117188 1.394531 37.257812 1.925781 36.125 2.28125 C 34.988281 2.632812 33.742188 2.8125 32.390625 2.8125 C 28.171875 2.8125 23.96875 1.128906 19.78125 -2.234375 C 15.601562 -5.609375 12.148438 -9.804688 9.421875 -14.828125 C 6.703125 -19.859375 5.34375 -24.671875 5.34375 -29.265625 C 5.34375 -32.578125 6.25 -35.625 8.0625 -38.40625 C 9.882812 -41.195312 12.332031 -43.398438 15.40625 -45.015625 C 18.488281 -46.640625 21.8125 -47.453125 25.375 -47.453125 C 28.300781 -47.453125 31.515625 -46.707031 35.015625 -45.21875 C 38.515625 -43.726562 41.945312 -41.625 45.3125 -38.90625 L 45.3125 -59.21875 L -1.359375 -59.21875 Z M 49.890625 -67 L 64.578125 -67 L 64.578125 -59.21875 L 57.859375 -59.21875 Z M 49.890625 -67 "/></g></g></g><path stroke-linecap="butt" transform="matrix(0.440145, 0, 0, 0.440145, 462.204008, 323.23294)" fill="none" stroke-linejoin="miter" d="M 76.162473 54.974453 C 83.413274 54.974453 89.412714 56.634061 94.151916 59.953278 C 98.926617 63.236995 101.313968 68.056071 101.313968 74.410507 C 101.313968 79.992825 99.379238 85.229022 95.500902 90.127972 C 91.631441 94.991423 86.421869 99.207006 79.88106 102.77472 C 73.340251 106.342433 66.133824 108.942782 58.261779 110.584641 L 56.1673 105.428318 C 63.045355 102.259975 68.317052 98.461513 71.973515 94.032933 C 75.665478 89.568853 77.511459 84.607778 77.511459 79.149709 C 77.511459 75.218123 76.39322 72.08528 74.165618 69.760054 C 71.96464 67.408202 68.831797 66.227839 64.767088 66.227839 C 59.033896 66.227839 54.19707 67.843073 50.265485 71.064665 C 46.325025 74.286258 43.396304 78.413091 41.479324 83.427415 C 39.580093 88.450614 38.639352 93.633562 38.639352 98.958508 L 38.639352 156.476801 C 38.639352 160.168764 38.097983 163.310482 37.015244 165.919706 C 35.959129 168.520054 34.219647 171.155903 31.805671 173.818376 L 32.968285 174.563868 C 38.665977 171.031654 44.700916 169.265547 51.055352 169.265547 C 55.235434 169.265547 60.240884 169.762542 66.0717 170.747657 C 66.968066 170.871906 68.787422 171.138153 71.51202 171.546399 C 74.236617 171.91027 77.058839 172.096643 79.969809 172.096643 C 84.433889 172.096643 88.409849 170.96953 91.879939 168.706427 C 95.376653 166.407826 98.651495 163.292732 101.686714 159.361147 L 106.292793 162.56499 L 90.850449 195.908027 C 84.371765 195.411032 76.118098 194.14192 66.0717 192.091816 C 59.992386 190.946952 54.66744 190.059461 50.079112 189.447093 C 45.517408 188.790349 40.574083 188.470852 35.240262 188.470852 C 26.720348 188.470852 18.972551 190.884828 11.996872 195.721654 L 6.28143 190.370083 C 9.1924 187.956108 11.313504 185.133886 12.64474 181.912294 C 13.975977 178.655202 14.65047 174.439619 14.65047 169.265547 L 14.65047 117.649069 C 14.65047 105.969687 17.215319 95.36417 22.362767 85.850266 C 27.510215 76.300862 34.752142 68.766064 44.079672 63.254744 C 53.407203 57.73455 64.10147 54.974453 76.162473 54.974453 Z M 168.363915 98.772135 C 175.091097 98.772135 181.339033 100.112246 187.107725 102.77472 C 192.867542 105.437193 197.162998 109.564026 199.98522 115.137469 L 181.481032 122.769892 C 179.714925 119.477301 177.22995 116.752703 174.043857 114.587225 C 170.875514 112.412872 167.511923 111.330133 163.953084 111.330133 C 155.459795 111.330133 148.732613 114.897847 143.771539 122.0244 C 138.810464 129.124328 136.334364 137.999238 136.334364 148.66688 C 136.334364 158.464781 137.789849 166.50545 140.70082 172.797761 C 143.64729 179.063448 148.297743 182.187416 154.652178 182.187416 C 163.518214 182.187416 169.588652 178.033958 172.881244 169.727042 C 176.191585 161.393501 177.851194 152.341093 177.851194 142.578692 L 177.851194 134.209651 L 200.171593 126.204482 L 200.171593 175.726481 C 200.171593 177.492589 200.570964 179.045698 201.378581 180.376934 C 202.221697 181.708171 203.45531 182.373789 205.097168 182.373789 C 208.292136 182.373789 211.531478 180.163936 214.815195 175.726481 L 218.445033 179.35632 C 216.519177 183.7849 213.501708 187.565612 209.374875 190.698455 C 205.256916 193.795799 200.854961 195.348908 196.169008 195.348908 C 190.06307 195.348908 185.61674 193.289929 182.830018 189.163095 C 180.043297 185.009637 178.641061 179.711316 178.641061 173.259256 L 177.851194 173.259256 C 174.815974 180.110687 170.751266 185.657506 165.674817 189.908588 C 160.589493 194.150795 154.678803 196.280773 147.960496 196.280773 C 137.816474 196.280773 129.979928 192.571061 124.433109 185.169386 C 118.912915 177.723336 116.152818 168.040809 116.152818 156.104055 C 116.152818 145.942283 118.336046 136.481628 122.711377 127.739842 C 127.113332 118.971431 133.281395 111.951377 141.215564 106.67968 C 149.149734 101.407983 158.202143 98.772135 168.363915 98.772135 Z M 302.987428 97.050402 C 307.451507 97.050402 310.69085 98.355014 312.705454 100.964238 C 314.746684 103.564587 316.015796 106.617556 316.512791 110.123145 C 317.009786 113.593235 317.258283 118.057315 317.258283 123.515385 L 317.258283 176.471974 C 317.258283 177.989583 317.737528 179.418444 318.704893 180.749681 C 319.663384 182.080917 320.843747 182.746535 322.237108 182.746535 C 324.127464 182.746535 325.795947 182.160791 327.260307 180.980428 C 328.715792 179.77344 330.277776 178.140457 331.955134 176.099228 L 335.158977 179.729066 C 332.895875 184.157646 329.763032 187.876233 325.769322 190.884828 C 321.766738 193.857923 317.480156 195.348908 312.891827 195.348908 C 306.812514 195.348908 302.241935 193.600551 299.171216 190.094961 C 296.135997 186.589371 294.618387 181.681546 294.618387 175.353735 L 294.618387 125.414615 C 294.618387 123.648508 294.414264 122.130899 294.014893 120.861787 C 293.642147 119.592674 292.754656 118.953681 291.361295 118.953681 C 287.048089 118.953681 282.663883 123.559759 278.199803 132.763041 C 273.771223 141.966323 270.034886 152.536341 266.999667 164.473095 C 263.955572 176.409849 262.437963 185.426758 262.437963 191.532696 L 240.117564 196.467147 L 240.117564 116.486456 C 240.117564 114.569475 239.673818 112.989741 238.777452 111.747254 C 237.907711 110.478142 236.647474 109.839148 235.005615 109.839148 C 233.239508 109.839148 231.491151 110.566891 229.751669 112.022376 C 228.047686 113.486736 226.618825 115.155219 225.473962 117.045575 L 222.030497 113.238239 C 223.956352 108.800784 226.947197 105.002322 231.011906 101.842854 C 235.06774 98.647886 239.44307 97.050402 244.120148 97.050402 C 250.474584 97.050402 255.107287 98.807635 258.027132 102.304349 C 260.964728 105.783314 262.437963 110.629015 262.437963 116.859202 L 262.437963 153.63683 L 263.183455 153.63683 C 266.62692 139.534598 271.738869 126.577229 278.528175 114.773598 C 285.317481 102.961093 293.464649 97.050402 302.987428 97.050402 Z M 397.620595 97.050402 C 404.223528 97.050402 410.46259 98.647886 416.35553 101.842854 C 422.275096 105.002322 426.712551 109.439777 429.650146 115.137469 L 411.145958 122.769892 C 409.255602 118.456686 406.744003 115.128595 403.611159 112.767868 C 400.513816 110.416017 397.1236 109.235654 393.431637 109.235654 C 387.973568 109.235654 383.154491 111.312383 378.974409 115.465841 C 374.785451 119.592674 371.581608 124.704623 369.345131 130.810561 C 367.117529 136.889874 365.99929 142.836064 365.99929 148.66688 C 365.99929 157.683789 367.579024 165.52921 370.738492 172.194267 C 373.93346 178.859325 379.036533 182.187416 386.038837 182.187416 C 394.035131 182.187416 399.58195 178.007333 402.688169 169.638293 C 405.785512 161.233753 407.338622 152.216844 407.338622 142.578692 L 407.338622 134.209651 L 429.836519 126.204482 L 429.836519 184.654641 C 429.836519 194.452542 427.298295 204.445691 422.212971 214.642963 C 417.127648 224.875734 410.267342 233.324649 401.614305 239.980831 C 392.996767 246.645889 383.669236 249.982855 373.622838 249.982855 C 366.52291 249.982855 360.700969 247.639879 356.139265 242.962801 L 372.327101 227.520457 C 376.382935 232.854278 381.139887 235.525626 386.597957 235.525626 C 395.091246 235.525626 400.700189 232.312909 403.433661 225.896349 C 406.158259 219.479789 407.524995 211.004249 407.524995 200.460856 L 407.338622 187.166241 C 407.338622 181.433049 407.844492 176.800346 408.873981 173.259256 L 407.338622 173.259256 C 403.673284 180.110687 399.555325 185.657506 394.966997 189.908588 C 390.414168 194.150795 384.893974 196.280773 378.415289 196.280773 C 367.996145 196.280773 359.919976 192.668685 354.186784 185.444508 C 348.489092 178.193706 345.631371 169.043674 345.631371 158.012161 C 345.631371 147.593016 347.823474 137.688616 352.18993 128.298961 C 356.591885 118.909306 362.759948 111.356758 370.694117 105.659065 C 378.628287 99.925873 387.600821 97.050402 397.620595 97.050402 Z M 397.620595 97.050402 " stroke="#ffa857" stroke-width="5.11837" stroke-opacity="1" stroke-miterlimit="4"/></svg>